PathFileType	4	(X/Y/Z)	C:/Users/opensim2020/Desktop/walking_exp_matlab/subject03_walking12_straight_04.trc	
DataRate	CameraRate	NumFrames	NumMarkers	Units	OrigDataRate	OrigDataStartFrame	OrigNumFrames	
100.00	100.00	8	48	mm	100.00	2297	202	
Frame#	Time	LFHD			RFHD			LBHD			RBHD			C7			T10			CLAV			STRN			RBAK			LSHO			LUPA			LELB			LFRM			LWRA			LWRB			LFIN			RSHO			RUPA			RELB			RFRM			RWRA			RWRB			RFIN			LASI			RASI			LPSI			RPSI			LTHI			LKNE			LTIB			LANK			LHEE			LTOE			RTHI			RKNE			RTIB			RANK			RHEE			RTOE			*39			*40			*41			*42			*43			*44			*45			*46			*47			
		X1	Y1	Z1	X2	Y2	Z2	X3	Y3	Z3	X4	Y4	Z4	X5	Y5	Z5	X6	Y6	Z6	X7	Y7	Z7	X8	Y8	Z8	X9	Y9	Z9	X10	Y10	Z10	X11	Y11	Z11	X12	Y12	Z12	X13	Y13	Z13	X14	Y14	Z14	X15	Y15	Z15	X16	Y16	Z16	X17	Y17	Z17	X18	Y18	Z18	X19	Y19	Z19	X20	Y20	Z20	X21	Y21	Z21	X22	Y22	Z22	X23	Y23	Z23	X24	Y24	Z24	X25	Y25	Z25	X26	Y26	Z26	X27	Y27	Z27	X28	Y28	Z28	X29	Y29	Z29	X30	Y30	Z30	X31	Y31	Z31	X32	Y32	Z32	X33	Y33	Z33	X34	Y34	Z34	X35	Y35	Z35	X36	Y36	Z36	X37	Y37	Z37	X38	Y38	Z38	X39	Y39	Z39	X40	Y40	Z40	X41	Y41	Z41	X42	Y42	Z42	X43	Y43	Z43	X44	Y44	Z44	X45	Y45	Z45	X46	Y46	Z46	X47	Y47	Z47	X48	Y48	Z48	

152	1.510	1473.18066	-538.72913	1601.74780	1344.28430	-504.18588	1603.08252	1503.14636	-412.41321	1563.90417	1375.66931	-382.82129	1564.20264	1440.47083	-362.42831	1396.31421	1434.83484	-343.76514	1079.13464	1432.61499	-487.80121	1325.30298	1430.48889	-538.31219	1162.97461	1338.90112	-314.49133	1218.46106	1592.41895	-441.63760	1357.25952	1659.29004	-403.58636	1160.71594	1672.47168	-389.67966	1038.15063	1678.13843	-381.61292	907.43787	1652.17407	-359.95331	785.88770	1705.24133	-344.34204	801.61102	1690.05164	-296.79218	726.01221	1275.10168	-433.22812	1351.91016	1191.86145	-475.20639	1139.65906	1177.26318	-521.72638	1038.96594	1182.69824	-601.16003	929.20996	1223.60303	-674.74713	868.73285	1184.07520	-650.33209	842.22400	1192.11926	-711.73071	805.31750	1536.25110	-531.68243	928.67426	1300.09888	-499.05951	918.27936	1511.72974	-362.75266	939.41760	1362.30249	-344.16129	946.76703	1589.55823	-561.64471	636.94879	1543.48596	-618.54840	475.27747	1551.39038	-622.66656	277.31979	1521.42310	-660.10925	70.82067	1487.14465	-620.98120	34.32162	1482.95093	-808.48151	43.59939	1264.90576	-390.48019	632.82593	1295.78613	-360.72375	454.33371	1292.63782	-233.83403	304.14340	1336.95789	-103.84040	130.60014	1386.40002	-49.71855	123.04610	1356.02563	-211.56467	35.18167																											 
153	1.520	1473.32422	-552.60205	1603.07153	1344.61072	-517.37317	1604.16199	1504.14282	-426.49579	1565.27319	1376.87634	-396.25162	1565.31519	1441.92712	-376.74564	1397.44556	1435.25183	-358.66418	1080.00671	1433.79456	-502.09146	1326.72900	1431.55786	-553.16974	1164.56958	1340.44653	-328.98007	1218.72681	1593.69739	-456.04553	1358.76001	1660.96570	-418.50443	1162.22839	1674.00159	-404.19891	1039.74292	1679.79199	-395.01761	909.10461	1654.23730	-371.63724	787.70459	1707.61108	-357.28055	803.42566	1692.22009	-306.36523	729.65381	1276.22571	-446.73868	1352.95923	1193.41296	-487.94308	1140.32458	1178.78540	-533.94342	1039.51392	1184.25244	-613.79883	930.24310	1224.81042	-688.13318	870.76318	1186.07397	-663.35571	843.46857	1193.63147	-725.66333	807.45605	1537.34045	-547.08508	930.72528	1301.66846	-515.28131	918.41602	1512.24976	-378.26929	941.45337	1362.39355	-360.25443	947.49884	1590.91016	-576.17114	639.64703	1544.58276	-632.68250	478.11365	1552.97742	-633.14880	278.39133	1521.90881	-663.39380	70.65070	1487.96948	-622.91101	35.31689	1484.22156	-812.48071	41.34808	1265.57458	-408.09119	632.30640	1295.57739	-379.49576	453.63019	1292.92029	-247.39107	307.38510	1337.14465	-112.09003	138.76283	1387.20679	-58.61736	134.04752	1356.32642	-212.85922	35.39585																											 
154	1.530	1473.51514	-566.49353	1604.75549	1345.01892	-530.45416	1605.37329	1505.14819	-440.65692	1566.84875	1378.05640	-409.65158	1566.58997	1443.43176	-390.39606	1398.69495	1436.14832	-373.63712	1081.05811	1434.85425	-516.23157	1328.36292	1432.74768	-568.12738	1166.56238	1342.16626	-343.26733	1219.67468	1594.85388	-470.48672	1360.61328	1662.38611	-433.95663	1164.00439	1675.39783	-419.23016	1041.62793	1681.27698	-409.11798	911.07690	1656.15979	-384.46539	789.79315	1709.84180	-371.14371	805.57922	1694.65466	-317.92044	732.97455	1277.41333	-460.30527	1354.30029	1195.03271	-500.63864	1141.21436	1180.43384	-546.05341	1040.29980	1185.87939	-625.95935	931.18616	1226.02161	-701.04968	872.42639	1187.99854	-675.70642	844.41010	1195.32605	-737.86884	808.65881	1538.11255	-562.60760	933.11536	1302.85620	-531.38239	919.00507	1512.61096	-393.90439	943.66833	1362.69958	-376.26709	948.39856	1592.41101	-589.16547	641.60309	1545.74731	-646.81567	479.97305	1555.04358	-642.64960	279.23892	1521.50183	-664.53131	70.69635	1488.15698	-623.70477	35.82975	1485.78442	-814.58887	40.02661	1266.22864	-426.47842	631.67267	1294.97656	-400.11710	452.75397	1292.85583	-262.90305	310.76013	1337.86609	-122.38984	147.11780	1389.08191	-70.22510	145.96570	1356.81079	-214.95503	36.01929																											 
155	1.540	1473.60498	-580.36548	1606.50208	1345.46753	-543.63788	1606.80591	1505.91968	-454.84741	1568.67688	1379.17041	-423.03171	1568.05530	1444.57922	-404.89868	1399.93066	1437.34692	-388.30319	1082.40857	1436.02551	-530.41632	1330.33765	1433.88843	-582.87970	1168.61743	1343.65405	-358.10928	1220.62170	1596.00073	-485.04904	1362.89343	1663.83057	-449.60046	1166.00732	1676.69727	-434.49905	1043.68860	1682.73242	-423.91855	913.24048	1657.82983	-398.35550	791.99719	1711.84290	-385.93857	807.84436	1697.29065	-331.34485	735.74158	1278.69287	-473.96188	1355.93774	1196.73279	-513.36987	1142.38879	1182.22034	-558.07141	1041.28455	1187.50305	-637.85565	932.03473	1227.21033	-713.12872	873.44159	1189.86035	-687.33582	845.05579	1196.86365	-749.46033	809.08612	1538.82092	-577.62378	935.62885	1304.25928	-547.19159	920.18433	1513.09253	-408.98645	946.20056	1363.10791	-392.34039	949.39008	1593.97937	-600.91693	642.73065	1547.04114	-660.27844	480.82889	1557.16406	-650.53400	280.04861	1521.62061	-665.06140	70.87627	1488.54443	-624.46490	35.44613	1484.81921	-815.11700	38.97001	1266.81238	-445.68518	631.12457	1294.10242	-422.45837	451.71210	1292.88745	-280.57184	314.18375	1338.46558	-135.31705	155.80891	1391.32275	-84.55276	158.40161	1357.36841	-216.81754	36.67316																											 
156	1.550	1473.73816	-594.06586	1608.38684	1346.04749	-556.54407	1607.95703	1506.90430	-468.61728	1570.60071	1380.24548	-436.32913	1569.59167	1445.79956	-419.04172	1401.42078	1438.41174	-402.84854	1083.89075	1437.09277	-544.48224	1332.28882	1434.93188	-597.55109	1170.75891	1344.98743	-371.71051	1222.23975	1596.95959	-499.53198	1365.15417	1665.31653	-465.25388	1168.25110	1678.03650	-450.10522	1045.90808	1684.08606	-439.32925	915.52942	1659.49048	-413.04694	794.18347	1713.79041	-401.56842	810.14783	1700.06531	-346.60797	738.00946	1279.86438	-487.65265	1357.51428	1198.47803	-526.11292	1143.76196	1184.04272	-570.11591	1042.41333	1189.20630	-649.31372	932.72681	1228.45947	-724.66278	873.92120	1191.66040	-698.23718	845.31244	1198.43018	-760.08875	808.72113	1539.69751	-592.25525	937.94440	1305.71411	-562.47235	921.79779	1513.51318	-423.73065	948.74371	1363.46033	-407.18155	950.95862	1595.54370	-612.45648	643.50287	1548.42395	-672.15344	481.08228	1558.50513	-656.95044	280.71661	1521.90369	-665.41168	71.06931	1489.01685	-624.50989	35.49455	1484.74963	-815.63757	38.25369	1267.45300	-465.53735	630.40009	1293.26709	-446.38235	450.57568	1292.88770	-300.34811	317.40314	1339.92188	-150.31691	164.60994	1393.50684	-101.62316	171.23418	1359.78967	-218.05302	36.65769																											 
157	1.560	1473.85388	-607.74799	1610.08862	1346.33533	-569.56226	1609.37659	1507.71301	-482.41586	1572.48120	1381.21106	-449.55106	1571.25098	1447.16077	-432.92194	1402.92859	1439.80591	-417.06866	1085.51819	1437.97754	-558.50909	1334.12598	1435.83984	-612.00604	1172.75281	1346.28857	-386.36682	1223.54150	1597.80725	-514.11121	1367.36768	1666.93286	-480.87436	1170.67297	1679.40002	-465.84933	1048.18225	1685.34607	-455.27295	917.81104	1661.03564	-428.75250	796.43127	1715.44446	-418.10052	812.32043	1702.73767	-363.53354	739.76636	1281.12964	-501.22388	1359.40710	1200.14307	-538.88135	1145.23352	1185.98730	-582.20837	1043.63867	1190.87183	-660.48883	933.16217	1229.75122	-735.64172	873.74146	1193.38562	-708.64453	845.15784	1199.95984	-769.91852	807.67914	1540.76074	-606.66650	940.20544	1307.03442	-577.47150	923.63074	1513.78699	-438.04294	951.10321	1363.89722	-421.95087	952.27826	1596.70483	-624.18805	644.21655	1550.03369	-682.10901	481.06128	1559.42346	-662.29114	281.00488	1522.44971	-665.39703	71.29429	1489.23218	-624.29626	35.65905	1485.25378	-815.93530	37.75956	1268.05249	-485.85651	629.46918	1293.14746	-471.15527	449.20831	1293.33813	-321.91135	320.27817	1340.23657	-168.13710	171.94135	1394.85632	-121.06167	183.63425	1361.29468	-220.22427	37.87436																											 
158	1.570	1473.94824	-621.25989	1611.62646	1346.67017	-582.51617	1610.58594	1508.42236	-496.16544	1574.08081	1382.08301	-462.73590	1572.49683	1448.39685	-446.92999	1404.54565	1441.22046	-431.15091	1087.09912	1438.85315	-572.46942	1335.85425	1436.61975	-626.39355	1174.65686	1347.39624	-400.21265	1225.15613	1598.50391	-528.84668	1369.45178	1668.60132	-496.40710	1172.96216	1680.38831	-480.88541	1050.14868	1686.62488	-471.85443	920.05408	1662.63635	-445.59109	798.82245	1716.99670	-435.40411	814.30951	1705.38477	-381.95844	740.87720	1282.38416	-514.63519	1361.18933	1201.86401	-551.73871	1146.69006	1187.91223	-594.29089	1044.69800	1192.49707	-671.38007	933.32104	1231.22412	-745.91931	872.90521	1194.95483	-718.48151	844.72656	1201.57861	-779.17120	806.01794	1541.66284	-620.67676	942.44513	1308.23364	-591.91461	925.34540	1514.03320	-452.22870	953.04626	1364.40759	-436.25806	953.46289	1597.75476	-635.81488	645.02399	1551.80005	-690.53949	480.66791	1560.56409	-666.70923	280.88162	1522.69324	-665.36176	71.39396	1489.70813	-623.99713	35.54003	1484.98218	-815.96631	37.34740	1268.75537	-506.33060	628.22217	1293.50012	-496.43063	447.75876	1294.31006	-345.01041	322.65604	1340.09985	-187.42799	178.31114	1394.65857	-141.38768	195.30406	1362.22278	-227.31816	41.85435																											 
159	1.580	1474.04944	-634.67389	1612.97498	1346.93396	-595.42505	1611.76575	1509.12000	-509.72632	1575.38647	1382.90759	-475.83801	1573.63550	1449.71326	-460.59473	1405.80188	1442.50171	-445.02786	1088.60986	1439.52026	-586.20233	1337.18628	1437.16846	-640.54913	1176.16418	1348.37817	-413.91791	1226.69067	1599.13782	-543.66980	1371.28748	1670.25208	-511.91620	1175.11597	1681.98950	-496.92740	1052.22095	1687.91504	-488.75854	922.05011	1663.90601	-462.92181	800.64093	1718.53174	-453.31613	816.01917	1707.82458	-401.73346	741.45105	1283.57935	-527.96381	1362.84583	1203.47668	-564.38708	1147.98096	1189.82031	-606.34857	1045.60828	1194.11719	-681.96698	933.16736	1232.67249	-755.96973	871.62799	1196.44873	-727.90973	843.78925	1203.26501	-787.73425	803.75293	1542.81860	-634.44550	944.23346	1309.23169	-605.95721	926.92908	1514.27905	-466.12073	954.78473	1364.89282	-450.15399	954.39697	1599.17395	-646.57794	645.96973	1553.21277	-698.06018	480.07962	1561.33826	-670.46802	280.70862	1523.22083	-665.25208	71.42451	1489.66370	-623.66901	35.84212	1485.03906	-816.02612	37.04261	1269.47485	-526.58350	626.78180	1294.08997	-521.86414	446.40405	1295.04456	-369.54031	324.43454	1340.41809	-207.44351	185.33917	1395.13660	-162.02519	206.55328	1362.67590	-239.81828	48.24590																											 
